<?xml version="1.0" encoding="UTF-8" standalone="yes"?>
<svg xmlns="http://www.w3.org/2000/svg" width="251.50307mm" height="80mm" viewBox="0 0 251.50307 80" version="1.1">
    <g id="g1069" transform="translate(73.69478,22.640221)">
        <g id="g914" transform="translate(-73.69478,-22.640221)">
            <path
                    id="rect842" style="fill:#00aaff;fill-opacity:1;stroke-width:4.52459;stroke-linejoin:round"
                    d="m 4.12865,24.513398 c 0,0 2.74361,17.120092 6.00101,22.713225 4.01223,6.889252 10.7834,11.092282 16.45192,11.092282 5.66867,0 12.20894,-4.64305 16.22128,-11.532302 3.25746,-5.593138 5.14681,-22.273205 5.14681,-22.273205 z"/>

            <path
                    id="rect842-6" style="fill:#28759b;fill-opacity:1;stroke-width:4.52459;stroke-linejoin:round"
                    d="m 9.10376,52.179083 c 0.76108,4.747882 1.28235,10.298083 1.49481,15.233292 l 15.90221,-0.02479 16.25035,0.0569 c 0.21261,-4.935204 0.57841,-10.980498 1.33948,-15.72838 -4.53716,6.444374 -10.96149,10.900886 -17.63641,10.900886 -6.67477,0 -12.81341,-3.993534 -17.35044,-10.437903 z"/>
            <path
                    id="rect853-3"
                    style="color:#000000;font-style:normal;font-variant:normal;font-weight:normal;font-stretch:normal;font-size:medium;line-height:normal;font-family:sans-serif;font-variant-ligatures:normal;font-variant-position:normal;font-variant-caps:normal;font-variant-numeric:normal;font-variant-alternates:normal;font-variant-east-asian:normal;font-feature-settings:normal;font-variation-settings:normal;text-indent:0;text-align:start;text-decoration:none;text-decoration-line:none;text-decoration-style:solid;text-decoration-color:#000000;letter-spacing:normal;word-spacing:normal;text-transform:none;writing-mode:lr-tb;direction:ltr;text-orientation:mixed;dominant-baseline:auto;baseline-shift:baseline;text-anchor:start;white-space:normal;shape-padding:0;shape-margin:0;inline-size:0;clip-rule:nonzero;display:inline;overflow:visible;visibility:visible;isolation:auto;mix-blend-mode:normal;color-interpolation:sRGB;color-interpolation-filters:linearRGB;solid-color:#000000;solid-opacity:1;vector-effect:none;fill:#005a76;fill-opacity:1;fill-rule:nonzero;stroke:none;stroke-width:1.09216;stroke-linecap:butt;stroke-linejoin:miter;stroke-miterlimit:4;stroke-dasharray:none;stroke-dashoffset:0;stroke-opacity:1;color-rendering:auto;image-rendering:auto;shape-rendering:auto;text-rendering:auto;enable-background:accumulate;stop-color:#000000"
                    d="M 48.38368,3.3e-4 A 2.0033696,2.0031207 0 0 0 46.69429,0.986203 L 36.08278,18.997931 H 26.50078 4.95172 5.2e-4
    0 v 2.953998 c 0,16.780266 6.07321,32.723087 6.14061,48.110116 l 0.0114,2.937954 H 26.5008 46.8501 l 0.009,-2.937954
    c 0.0674,-15.387029 6.14063,-31.32985 6.14063,-48.110116 v -2.953998 h -4.94965 -7.315 L 50.14733,3.020568 A
    2.0033696,2.0031207 0 0 0 49.43824,0.278236 l -10e-4,-0.001 A 2.0033696,2.0031207 0 0 0 48.38391,3.31e-4 Z M
    5.21827,24.908514 h 21.28251 6.10023 l -3.46211,5.876429 c -0.19482,-0.05652 -0.38164,-0.1004 -0.4208,-0.1004
    -0.0883,0 -0.0886,0.0105 -0.1734,-0.901001 -0.0601,-0.674789 -0.22602,-2.148061 -0.24015,-2.162194 -0.0282,-0.02826
    -0.44505,-0.08102 -0.89025,-0.112819 -0.45933,-0.03533 -1.31477,-0.04275 -1.60451,-0.01449 -0.71727,0.06713
    -0.89029,0.0848 -0.93268,0.102466 -0.0742,0.02826 -0.23651,1.41694 -0.29657,2.536879 l -0.0248,0.455417
    -0.38871,0.09574 c -0.21199,0.053 -0.50884,0.144877 -0.65371,0.204938 -0.37099,0.151916 -1.19064,0.544126
    -1.40265,0.674844 -0.099,0.06006 -0.18755,0.109196 -0.19461,0.109196 -0.0106,0 -0.53355,-0.424004 -1.16249,-0.939813
    -0.62894,-0.515808 -1.16561,-0.946811 -1.18682,-0.957409 -0.0848,-0.03533 -0.80925,0.579393 -1.34986,1.141129
    -0.5194,0.537006 -1.11327,1.279098 -1.07087,1.332092 0.15194,0.201377 0.73148,0.915036 1.22615,1.508568
    0.33214,0.399222 0.61834,0.745339 0.63249,0.770069 0.0141,0.02826 -0.0318,0.134519 -0.12008,0.275838
    -0.23674,0.37449 -0.51245,0.957264 -0.63611,1.33882 -0.0636,0.19431 -0.15179,0.466252 -0.19772,0.607568
    -0.046,0.137784 -0.0849,0.275521 -0.0849,0.303782 0,0.03887 -0.0668,0.05686 -0.25413,0.07452 -1.37802,0.127185
    -2.7032,0.278894 -2.73854,0.317757 -0.10953,0.105988 -0.18014,1.525963 -0.12008,2.292611 0.0424,0.533471
    0.12367,1.113045 0.16252,1.148373 0.0141,0.01767 1.0566,0.120299 2.67488,0.272214 l 0.27173,0.02484 0.0212,0.14439 c
    0.0141,0.08126 0.0531,0.219082 0.0885,0.307404 0.0354,0.08832 0.12033,0.342646 0.19099,0.568755 0.13781,0.427484
    0.4237,1.03521 0.66043,1.388502 0.0777,0.116587 0.1343,0.229978 0.12371,0.258243 -0.0106,0.02473 -0.2933,0.374561
    -0.63249,0.777312 -0.93282,1.116407 -1.22958,1.494209 -1.20131,1.540136 0.12014,0.211976 0.6892,0.87966
    1.08848,1.282414 0.1987,0.20001 0.43427,0.413586 0.6594,0.609637 l -1.75306,2.975728 a 2.0033696,2.0031207 0 0 0
    0.70909,2.742333 l 0.002,0.001 a 2.0033696,2.0031207 0 0 0 2.74267,-0.709001 l 3.25664,-5.528137 c 0.031,0.0088
    0.0622,0.02014 0.0932,0.02846 0.2226,0.06006 0.42754,0.123529 0.44874,0.13766 0.0282,0.01766 0.0809,0.385268
    0.14803,1.067125 0.10601,1.035149 0.20145,1.851497 0.22618,1.925689 0.0282,0.07419 1.09567,0.130391 2.01081,0.109196
    0.72788,-0.01767 1.43774,-0.08467 1.49427,-0.137662 0.007,-0.01059 0.0706,-0.636078 0.13767,-1.392125
    0.0707,-0.756048 0.13433,-1.42738 0.14493,-1.490973 0.0212,-0.13425 0.0145,-0.130331 0.62576,-0.310511
    0.51234,-0.151917 1.1942,-0.45213 1.60761,-0.710036 0.16607,-0.105987 0.31781,-0.183963 0.33902,-0.17337
    0.0212,0.0071 0.23704,0.183839 0.48083,0.39228 0.81975,0.70659 1.84395,1.505012 1.89694,1.487352 0.0954,-0.03887
    0.48796,-0.339432 0.70702,-0.540809 0.4558,-0.423951 1.70647,-1.840558 1.70647,-1.932415 0,-0.0106
    -0.40264,-0.498253 -0.89024,-1.08472 -0.49115,-0.582934 -0.92962,-1.105732 -0.97202,-1.158727 l -0.0776,-0.09522
    0.20859,-0.402629 c 0.27914,-0.533474 0.55108,-1.21566 0.66768,-1.664341 l 0.0921,-0.367439 0.65371,-0.06003 c
    0.3604,-0.0318 1.03881,-0.09527 1.50875,-0.137662 l 0.85505,-0.08125 0.0212,-0.0916 c 0.046,-0.222575
    0.0915,-0.77416 0.10921,-1.342963 0.0317,-0.837303 -0.0599,-2.056074 -0.15528,-2.116134 -0.0247,-0.01413
    -0.69633,-0.08468 -1.4984,-0.158879 -0.80208,-0.07419 -1.46978,-0.141462 -1.48391,-0.148526 -0.0141,-0.0071
    -0.0424,-0.105858 -0.0637,-0.218911 -0.0954,-0.484011 -0.40619,-1.286186 -0.72772,-1.883253 l -0.22981,-0.42747
    0.13457,-0.162501 c 0.0742,-0.09185 0.49101,-0.604123 0.93268,-1.141129 0.43815,-0.537006 0.80935,-0.992711
    0.82348,-1.017441 0.0282,-0.04239 -0.25096,-0.399257 -0.71737,-0.918597 -0.26844,-0.297823 -0.71247,-0.710294
    -1.09314,-1.035555 l 3.16917,-5.37961 H 47.7837 c -0.75618,8.42044 -3.07154,15.907185 -6.329,21.500324
    -4.01235,6.889252 -9.28535,10.816665 -14.95402,10.816665 -5.66852,0 -10.94126,-3.927413 -14.9535,-10.816665 C
    8.28979,40.815658 5.97436,33.328913 5.21818,24.908473 Z m 21.10239,9.933258 c 0.1367,-0.0021 0.28347,-10e-4
    0.427,0.0026 l -3.83218,6.504696 c -0.0508,-0.08365 -0.10082,-0.16809 -0.14751,-0.25669 -0.33921,-0.646528
    -0.4735,-1.211781 -0.46997,-2.017288 0.004,-0.992755 0.27171,-1.791359 0.86178,-2.554475 0.74907,-0.971557
    1.76709,-1.575499 2.80944,-1.663824 0.0981,-0.0079 0.2196,-0.01297 0.35144,-0.01501 z m 3.89378,2.015219 c
    0.26424,0.412327 0.44488,0.853391 0.54243,1.334682 0.36746,1.77 -0.34989,3.525951 -1.83744,4.508106
    -0.67841,0.448684 -1.33548,0.657112 -2.17643,0.692443 -0.13243,0.006 -0.25791,0.0062 -0.38043,0.0031 z M
    9.27923,52.571453 c 4.53704,6.44437 10.54677,10.540309 17.22155,10.540309 6.67491,0 12.68489,-4.095934
    17.22205,-10.540309 -0.76106,4.747883 -1.38673,9.585339 -1.59933,14.520541 H 26.50078 10.87856 C 10.6661,62.156785
    10.04032,57.319336 9.27923,52.571453 Z"/>
        </g>

        <g id="g1054" transform="translate(-57.819776,-22.640221)">
            <g id="g984" style="fill:#005a76;fill-opacity:1">
                <path
                        d="m 79.479622,22.640257 q 2.707481,0 8.018302,1.028973 5.362891,1.028974 6.820763,1.028974 -1.614073,3.249389 -2.082676,4.711614 -0.468604,1.40807 -0.781001,3.574329 -1.666143,-4.982399 -5.310826,-6.877874 -3.644683,-1.895478 -9.319972,-1.895478 -6.924899,0 -9.788581,4.711618 -2.811611,4.711615 -2.811611,12.022739 0,10.127265 4.061221,17.709175 4.113282,7.527755 12.079518,7.527755 4.686021,0 7.549703,-2.81614 2.915743,-2.76198 2.915743,-7.527755 0,-4.711615 -2.134742,-5.740585 -2.134741,-1.028975 -7.914166,-1.028975 -2.655415,0 -4.946358,0.541565 -2.290943,0.541565 -4.009151,3.08692 0,-2.59951 2.707481,-5.361495 2.759541,-2.816135 6.664561,-2.816135 1.353741,0 2.811612,0.05414 1.457876,0 2.967813,0 5.154625,0 8.643107,-0.270801 3.488482,-0.2708 5.362888,-1.08313 -0.72893,2.057945 -2.863679,4.17005 -2.082676,2.1121 -5.88356,2.1121 0.989272,1.191445 1.35374,2.32873 0.364453,1.08313 0.364453,3.520175 0,6.76956 -4.165352,9.477385 -4.113282,2.76198 -10.777848,2.76198 -11.142316,0 -16.192805,-6.227995 -4.998423,-6.227995 -4.998423,-14.5681 0,-11.047924 5.675293,-17.600859 5.727359,-6.552936 15.984538,-6.552936 z"
                        id="path851"
                        style="font-size:10.5833px;line-height:1.25;font-family:BlackChancery;-inkscape-font-specification:BlackChancery;white-space:pre;fill:#005a76;fill-opacity:1;stroke-width:5.01747"
                />
                <path
                        d="m 108.22049,23.452604 q 1.30167,0 2.18681,0.974817 0.88513,0.974817 0.88513,2.653667 0,1.89548 -1.562,2.97861 -1.56201,1.08313 -2.81162,1.08313 -1.0934,0 -1.66613,-1.191445 -0.52067,-1.2456 -0.52067,-2.870295 0,-2.057945 0.9372,-2.816136 0.9372,-0.812348 2.55128,-0.812348 z m -0.67687,11.806118 q 1.61407,0 2.23888,1.299755 0.67687,1.299755 0.67687,3.08692 v 15.217975 q 0.20825,1.51638 1.0934,1.51638 0.62481,0 1.45787,-0.70403 0.83307,-0.704035 1.09341,-0.920665 -1.24961,2.22042 -2.55128,3.24939 -1.2496,1.028975 -2.86368,1.028975 -1.35374,0 -2.18681,-1.19144 -0.83307,-1.191445 -0.83307,-2.81614 V 39.049677 q 0,-1.028975 -0.72894,-1.028975 -0.98927,0 -3.07194,1.84132 0.26035,-1.028975 2.13474,-2.81614 1.87441,-1.78716 3.54055,-1.78716 z"
                        id="path853"
                        style="font-size:10.5833px;line-height:1.25;font-family:BlackChancery;-inkscape-font-specification:BlackChancery;white-space:pre;fill:#005a76;fill-opacity:1;stroke-width:5.01747"
                />
                <path
                        d="m 133.99359,55.296622 q 0,1.191445 0.781,1.191445 1.04134,0 2.86368,-1.787165 -1.04134,2.05795 -2.65541,3.195235 -1.56201,1.137285 -2.81162,1.137285 -1.4058,0 -2.29094,-0.866505 -0.83307,-0.92066 -0.83307,-2.76198 l 0.0521,-12.18521 q 0,-1.2456 -0.26034,-1.949635 -0.26034,-0.75819 -1.45787,-0.75819 -1.30168,0 -3.43642,2.870295 -2.13474,2.816135 -2.13474,3.303545 v 9.206605 q -0.26033,1.137285 -1.82234,2.16626 -1.50995,0.974815 -3.01989,0.974815 v -18.52152 q 0,-0.866505 -0.6248,-0.866505 -0.781,0 -2.96781,1.462225 1.97854,-2.59951 3.59261,-4.06174 1.66615,-1.51638 2.60335,-1.51638 1.45787,0 1.82234,1.67885 0.41654,1.624695 0.41654,5.090715 v 2.00379 q 2.0306,-3.30355 4.26948,-6.011375 2.29094,-2.76198 4.79016,-2.76198 1.92647,0 2.55127,1.353915 0.62481,1.35391 0.62481,4.061735 0,0.81235 -0.0521,1.624695 0,0.75819 0,1.57054 0,1.570535 -0.0521,3.3577 0,1.73301 0,4.22421 0,1.408065 0,2.491195 0,1.028975 0.0521,1.08313 z"
                        id="path855"
                        style="font-size:10.5833px;line-height:1.25;font-family:BlackChancery;-inkscape-font-specification:BlackChancery;white-space:pre;fill:#005a76;fill-opacity:1;stroke-width:5.01747"
                />
            </g>

            <g id="g1018" style="fill:#28759b;fill-opacity:1">
                <path
                        d="m 159.14185,22.640257 q 3.59262,0 5.62323,2.761981 2.03061,2.707825 3.01988,6.552934 0.98927,3.845115 1.82234,7.040345 0.88514,3.195235 1.61407,5.30734 0.98927,-3.46602 2.03061,-6.98619 2.13474,-6.119684 5.41496,-10.398049 3.33228,-4.278361 8.22657,-4.278361 2.29094,0 3.64468,0.92066 1.40581,0.920661 2.08268,2.437041 -1.04134,-1.19144 -2.39508,-1.733006 -1.35374,-0.595722 -2.86368,-0.595722 -3.22815,0 -5.05049,3.141078 -1.82234,3.141075 -1.82234,6.877874 0,4.6033 2.49921,12.455995 2.55128,7.85269 7.2373,14.83888 4.73809,6.98619 11.03818,9.639855 h -4.84222 q -9.16377,0 -13.69359,-7.74438 -4.52982,-7.744375 -6.03976,-18.142425 -0.36447,-4.549145 -0.72894,-9.09829 -1.40581,2.870295 -3.33228,9.91064 -1.92648,7.04034 -2.75955,10.993765 -1.14547,-2.057945 -2.55127,-5.794745 -1.35374,-3.790955 -3.12402,-9.09829 -1.71821,-5.361495 -2.44714,-7.527755 0,4.711615 -1.97854,13.64744 -1.97855,8.881665 -5.72736,15.92201 -3.74882,7.040345 -8.85138,7.040345 -3.17608,0 -5.46702,-3.08692 -2.29094,-3.08692 -2.29094,-7.31113 1.35373,1.73301 3.48848,2.870295 2.18681,1.191445 4.68602,1.191445 5.46702,0 8.74724,-5.957215 3.33228,-5.957215 4.68602,-13.268345 1.35374,-7.311125 1.35374,-11.481175 0,-5.253179 -1.04134,-7.365284 -1.04134,-2.112103 -4.58189,-2.112103 -6.40423,0 -10.15304,3.411858 -3.74882,3.41186 -3.74882,9.260764 0,4.33252 1.61407,7.58191 1.77028,2.545355 3.59262,5.03655 0,0.704035 -1.14547,1.2456 -1.09341,0.541565 -1.87441,0.541565 -1.61407,-1.35391 -3.22815,-3.790955 -1.562,-2.43704 -1.562,-7.961005 0,-8.340099 5.41495,-12.618464 5.46703,-4.278361 15.46387,-4.278361 z"
                        id="path857"
                        style="font-size:10.5833px;line-height:1.25;font-family:BlackChancery;-inkscape-font-specification:BlackChancery;white-space:pre;fill:#28759b;fill-opacity:1;stroke-width:5.01747"
                />
                <path
                        d="m 208.65743,35.529502 v 20.037905 q 0.0521,0.704035 0.67687,0.704035 0.4686,0 1.0934,-0.32494 0.67687,-0.37908 2.13475,-1.2456 -0.67687,1.462225 -2.29095,2.870295 -1.562,1.40807 -3.01988,1.40807 -0.83307,0 -2.18681,-1.191445 -1.30167,-1.19144 -1.30167,-3.19523 v -2.924455 q -3.17608,3.30355 -5.36289,5.30734 -2.18681,2.00379 -3.80088,2.00379 -1.77028,0 -3.17609,-2.16626 -1.35374,-2.16626 -1.35374,-5.794745 0,-7.365285 3.90502,-11.42702 3.90502,-4.06174 10.15305,-4.06174 z m -13.58946,11.372865 q 0,2.65367 0.83307,3.89927 0.83307,1.245595 2.29094,1.245595 1.24961,0 2.65541,-0.75819 1.45788,-0.812345 2.91575,-2.16626 v -12.0769 q -3.90502,0 -6.3001,3.032765 -2.39507,2.97861 -2.39507,6.82372 z"
                        id="path859"
                        style="font-size:10.5833px;line-height:1.25;font-family:BlackChancery;-inkscape-font-specification:BlackChancery;white-space:pre;fill:#28759b;fill-opacity:1;stroke-width:5.01747"
                />
                <path
                        d="m 231.98339,55.296622 q 0,1.191445 0.781,1.191445 1.04134,0 2.86368,-1.787165 -1.04133,2.05795 -2.65541,3.195235 -1.562,1.137285 -2.81161,1.137285 -1.40581,0 -2.29095,-0.866505 -0.83307,-0.92066 -0.83307,-2.76198 l 0.0521,-12.18521 q 0,-1.2456 -0.26035,-1.949635 -0.26035,-0.75819 -1.45787,-0.75819 -1.30167,0 -3.43642,2.870295 -2.13474,2.816135 -2.13474,3.303545 v 9.206605 q -0.26035,1.137285 -1.82234,2.16626 -1.50994,0.974815 -3.01988,0.974815 v -18.52152 q 0,-0.866505 -0.6248,-0.866505 -0.78101,0 -2.96782,1.462225 1.97854,-2.59951 3.59262,-4.06174 1.66614,-1.51638 2.60334,-1.51638 1.45788,0 1.82234,1.67885 0.41656,1.624695 0.41656,5.090715 v 2.00379 q 2.0306,-3.30355 4.26948,-6.011375 2.29094,-2.76198 4.79016,-2.76198 1.92647,0 2.55128,1.353915 0.6248,1.35391 0.6248,4.061735 0,0.81235 -0.052,1.624695 0,0.75819 0,1.57054 0,1.570535 -0.0521,3.3577 0,1.73301 0,4.22421 0,1.408065 0,2.491195 0,1.028975 0.0521,1.08313 z"
                        id="path861"
                        style="font-size:10.5833px;line-height:1.25;font-family:BlackChancery;-inkscape-font-specification:BlackChancery;white-space:pre;fill:#28759b;fill-opacity:1;stroke-width:5.01747"
                />
            </g>

        </g>

    </g>
</svg>
